#!OML:ASF F:\VICON\USERDATA\INSTALL\rory3\rory3.ASF
:FULLY-SPECIFIED
:DEGREES
98
root 0.719411 17.1835 16.3122 4.26036 -8.64137 -7.39239
lowerback 15.8306 1.04003 3.88732
upperback 0.338989 2.39629 3.62636
thorax -8.54272 1.07051 1.15123
lowerneck -17.3983 -2.20044 -2.35392
upperneck 5.95516 -2.71088 2.82727
head 4.65126 -1.19956 1.02082
rclavicle -1.66482e-014 -4.77083e-015
rhumerus -41.9401 6.92271 -97.6219
rradius 106.597
rwrist -18.8825
rhand -19.0137 39.3114
rfingers 7.12502
rthumb 7.2919 9.45703
lclavicle -1.66482e-014 -4.77083e-015
lhumerus -48.4543 -3.59842 91.9028
lradius 100.823
lwrist 31.3601
lhand -27.68 2.38741
lfingers 7.12502
lthumb -1.07681 32.3644
rfemur -19.9075 8.90253 38.4729
rtibia 47.0447
rfoot -20.9582 -13.4989
rtoes 4.38477
lfemur -18.929 12.7033 -6.33344
ltibia 102.26
lfoot 11.5043 -14.9727
ltoes 1.35812
99
root 0.704576 17.1733 16.7622 4.35927 -8.27468 -7.55136
lowerback 16.1357 1.10086 3.73284
upperback 0.31784 2.47884 3.725
thorax -8.74887 1.11576 1.32117
lowerneck -17.6426 -2.2928 -2.4047
upperneck 5.86263 -2.85056 3.15619
head 4.67055 -1.24525 1.11783
rclavicle -1.59028e-014 -2.38542e-015
rhumerus -39.8589 7.85864 -97.702
rradius 107.221
rwrist -18.604
rhand -18.712 39.55
rfingers 7.12502
rthumb 7.58312 9.7059
lclavicle -1.59028e-014 -2.38542e-015
lhumerus -49.4056 -4.18667 92.4029
lradius 100.311
lwrist 30.9393
lhand -27.4334 1.78867
lfingers 7.12502
lthumb -0.838653 31.7668
rfemur -18.1281 8.81979 38.744
rtibia 46.6049
rfoot -22.0092 -14.2812
rtoes 0.240191
lfemur -22.0738 13.1773 -5.73864
ltibia 103.43
lfoot 9.65903 -14.4661
ltoes -3.12404
100
root 0.713268 17.1819 17.222 4.62339 -7.12769 -6.86495
lowerback 15.8564 0.954084 3.34095
upperback 0.255528 2.18604 3.56248
thorax -8.66616 0.989988 1.4386
lowerneck -17.875 -2.44683 -2.41318
upperneck 5.88971 -3.05749 3.22817
head 4.72247 -1.33955 1.12085
rclavicle 1.68967e-014 -3.18055e-015
rhumerus -37.9102 8.71486 -97.5665
rradius 108.087
rwrist -18.6065
rhand -18.3859 39.5073
rfingers 7.12502
rthumb 7.89791 9.67488
lclavicle 1.68967e-014 -3.18055e-015
lhumerus -50.5313 -5.00869 93.0376
lradius 100.381
lwrist 30.6183
lhand -26.5339 1.19419
lfingers 7.12502
lthumb 0.03011 31.1739
rfemur -16.4005 7.80476 37.9601
rtibia 45.8765
rfoot -22.8816 -14.9643
rtoes -4.05315
lfemur -25.5775 12.3294 -6.98451
ltibia 103.891
lfoot 7.98111 -12.9126
ltoes -8.57218
101
root 0.726681 17.2216 17.6949 4.76334 -5.83827 -6.28108
lowerback 15.7591 0.734776 3.23381
upperback 0.0806663 1.86543 3.38337
thorax -8.79706 0.835206 1.38128
lowerneck -17.7926 -2.66136 -2.47547
upperneck 5.92985 -3.3465 3.36361
head 4.73404 -1.47387 1.14698
rclavicle -1.63003e-014 -2.3059e-014
rhumerus -36.6115 9.39079 -97.526
rradius 109.302
rwrist -19.1082
rhand -18.7516 39.4428
rfingers 7.12502
rthumb 7.5449 9.59732
lclavicle -1.63003e-014 -2.3059e-014
lhumerus -51.9243 -5.71469 93.58
lradius 100.714
lwrist 29.8417
lhand -25.6117 0.722903
lfingers 7.12502
lthumb 0.920811 30.7007
rfemur -14.4507 6.57451 37.2727
rtibia 44.982
rfoot -23.3941 -14.6923
rtoes -3.84569
lfemur -28.5414 11.0264 -8.22731
ltibia 103.63
lfoot 6.40408 -11.426
ltoes -9.60878
102
root 0.750188 17.2832 18.231 5.25718 -5.53634 -6.12525
lowerback 14.8153 0.867883 3.54953
upperback 0.0125397 2.03399 3.23172
thorax -8.32112 0.905814 1.01238
lowerneck -18.0649 -2.96438 -2.59799
upperneck 6.05777 -3.7492 3.63049
head 4.83657 -1.65174 1.20922
rclavicle -1.28216e-014 -2.46493e-014
rhumerus -35.8425 9.6743 -97.543
rradius 111.278
rwrist -20.0572
rhand -19.6254 40.0489
rfingers 7.12502
rthumb 6.70145 10.1749
lclavicle -1.28216e-014 -2.46493e-014
lhumerus -53.0432 -6.47714 94.1435
lradius 101.047
lwrist 29.5057
lhand -24.7244 0.041656
lfingers 7.12502
lthumb 1.77777 30.014
rfemur -12.4457 6.11432 36.8508
rtibia 43.9949
rfoot -23.6872 -14.0589
rtoes -5.99657
lfemur -30.7859 10.6893 -9.06614
ltibia 102.704
lfoot 4.42102 -9.89043
ltoes -8.91313
103
root 0.759909 17.341 18.7261 5.47767 -5.03049 -6.15943
lowerback 14.681 0.987621 3.88503
upperback -0.00450973 2.23598 3.14625
thorax -8.24641 0.988652 0.690268
lowerneck -18.8334 -3.29573 -2.74091
upperneck 6.3744 -4.18238 3.92006
head 5.07962 -1.83478 1.27113
rclavicle -2.69353e-014 -3.77691e-014
rhumerus -35.1042 9.63941 -97.5519
rradius 113.379
rwrist -20.9869
rhand -20.5814 43.0969
rfingers 7.12502
rthumb 5.77849 13.1957
lclavicle -2.69353e-014 -3.77691e-014
lhumerus -53.8463 -7.48431 94.685
lradius 101.476
lwrist 30.0845
lhand -24.3202 -0.689191
lfingers 7.12502
lthumb 2.16816 29.2795
rfemur -10.4068 5.53995 36.773
rtibia 43.0771
rfoot -23.2085 -14.0602
rtoes -11.457
lfemur -33.0414 10.1174 -9.51473
ltibia 101.562
lfoot 2.69178 -8.59146
ltoes -8.7853
104
root 0.77302 17.4057 19.2061 5.83701 -4.50561 -6.10865
lowerback 14.5819 1.12008 4.18474
upperback -0.147762 2.4521 2.9959
thorax -8.32373 1.075 0.316151
lowerneck -19.3878 -3.60489 -2.87109
upperneck 6.6376 -4.59052 4.19167
head 5.27307 -2.00755 1.32824
rclavicle -1.22253e-014 -2.22639e-014
rhumerus -34.444 9.66908 -97.4593
rradius 115.228
rwrist -21.0139
rhand -20.6447 42.8864
rfingers 7.12502
rthumb 5.71736 12.9835
lclavicle -1.22253e-014 -2.22639e-014
lhumerus -54.7439 -8.3819 95.1519
lradius 102.015
lwrist 30.891
lhand -24.3825 -0.842051
lfingers 7.12502
lthumb 2.10795 29.1273
rfemur -8.78392 4.92124 36.4949
rtibia 42.3321
rfoot -22.3912 -13.3304
rtoes -12.7366
lfemur -35.4116 9.28145 -10.1654
ltibia 100.086
lfoot 1.53353 -7.41985
ltoes -8.42102
105
root 0.800736 17.4747 19.681 6.21438 -3.81748 -5.93519
lowerback 14.5181 1.1971 4.65844
upperback -0.467852 2.62265 2.68314
thorax -8.59606 1.12122 -0.321345
lowerneck -19.2049 -3.93791 -2.81491
upperneck 6.62951 -5.07007 4.33599
head 5.2618 -2.23129 1.3178
rclavicle -1.45113e-014 5.96354e-015
rhumerus -34.1667 9.5886 -97.5337
rradius 116.873
rwrist -20.9043
rhand -20.2435 42.2934
rfingers 7.12502
rthumb 6.10476 12.4014
lclavicle -1.45113e-014 5.96354e-015
lhumerus -56.0382 -9.19421 95.4691
lradius 102.791
lwrist 31.6011
lhand -24.2708 -0.38163
lfingers 7.12502
lthumb 2.21578 29.5866
rfemur -7.35574 4.07994 35.9637
rtibia 41.6284
rfoot -20.456 -12.1223
rtoes -14.9158
lfemur -37.6472 8.08666 -11.0547
ltibia 98.2394
lfoot 0.922963 -6.21344
ltoes -7.93287
106
root 0.834055 17.547 20.1491 6.75824 -2.75286 -5.89985
lowerback 14.3572 1.21761 5.46514
upperback -0.945095 2.77818 2.37695
thorax -8.96862 1.13632 -1.13451
lowerneck -18.7474 -4.34835 -2.62739
upperneck 6.67163 -5.67147 4.30187
head 5.21845 -2.52768 1.22205
rclavicle 1.0635e-014 -1.39149e-014
rhumerus -34.1235 9.29558 -97.5412
rradius 118.385
rwrist -20.8562
rhand -19.6392 40.8979
rfingers 7.12502
rthumb 6.68817 11.0235
lclavicle 1.0635e-014 -1.39149e-014
lhumerus -57.5279 -10.1094 95.8089
lradius 103.636
lwrist 31.9231
lhand -24.6255 1.6688
lfingers 7.12502
lthumb 1.87321 31.6403
rfemur -6.12716 3.01858 35.5991
rtibia 40.6976
rfoot -18.5388 -10.5289
rtoes -15.632
lfemur -40.0907 6.56946 -11.7271
ltibia 95.9988
lfoot 0.505173 -5.15408
ltoes -8.23312
107
root 0.81524 17.6179 20.7095 6.13691 -4.05597 -6.89363
lowerback 14.3659 2.02269 5.93921
upperback -0.689463 3.92517 2.52627
thorax -8.60963 1.68339 -1.47552
lowerneck -18.8829 -4.62972 -2.59629
upperneck 7.07748 -6.07585 4.36442
head 5.38327 -2.71166 1.18884
rclavicle -2.84262e-014 -5.24792e-014
rhumerus -34.0361 9.3667 -97.3987
rradius 119.755
rwrist -20.6969
rhand -19.6444 38.527
rfingers 7.12502
rthumb 6.68308 8.65247
lclavicle -2.84262e-014 -5.24792e-014
lhumerus -58.5235 -10.7043 96.0488
lradius 103.949
lwrist 31.9611
lhand -25.2343 6.47817
lfingers 7.12502
lthumb 1.28524 36.454
rfemur -3.01972 4.4715 36.6113
rtibia 39.5445
rfoot -15.7725 -9.5352
rtoes -17.0682
lfemur -40.0042 7.91516 -10.6094
ltibia 93.2392
lfoot -1.43291 -4.62814
ltoes -13.5025
108
root 0.838789 17.793 21.2746 6.23139 -3.80211 -6.45773
lowerback 13.8047 2.16377 6.08217
upperback -0.701051 4.06121 2.18696
thorax -8.25766 1.74762 -1.91757
lowerneck -18.9043 -4.73262 -2.56274
upperneck 7.08412 -6.23714 4.49344
head 5.39808 -2.77875 1.20689
rclavicle 4.18442e-014 1.94809e-014
rhumerus -33.973 9.70377 -97.2365
rradius 121.189
rwrist -20.4887
rhand -19.4863 35.8906
rfingers 7.12502
rthumb 6.83575 6.02097
lclavicle 4.18442e-014 1.94809e-014
lhumerus -59.2964 -10.7248 95.9773
lradius 104.125
lwrist 32.0421
lhand -24.5825 8.54882
lfingers 7.12502
lthumb 1.91478 38.52
rfemur -0.958393 3.93954 35.6427
rtibia 38.0485
rfoot -12.9367 -7.61337
rtoes -17.9913
lfemur -40.5623 6.68975 -11.6725
ltibia 89.3702
lfoot -1.52508 -3.35825
ltoes -15.4397
109
root 0.851244 17.9103 21.8026 6.31849 -3.34829 -6.34106
lowerback 13.601 2.2795 6.28283
upperback -0.888501 4.22692 1.99583
thorax -8.3048 1.81009 -2.25907
lowerneck -18.501 -4.84924 -2.4086
upperneck 6.84329 -6.42417 4.46661
head 5.25908 -2.87699 1.16489
rclavicle 5.43676e-014 1.82882e-014
rhumerus -34.2012 9.89168 -97.1514
rradius 122.574
rwrist -19.8353
rhand -19.6599 33.2405
rfingers 7.12502
rthumb 6.66818 3.36546
lclavicle 5.43676e-014 1.82882e-014
lhumerus -60.549 -10.4732 95.8822
lradius 104.659
lwrist 32.0598
lhand -24.0392 6.8077
lfingers 7.12502
lthumb 2.4395 36.7735
rfemur 0.774199 3.6059 35.2007
rtibia 36.4041
rfoot -8.41265 -6.02976
rtoes -18.9942
lfemur -41.0126 5.43113 -12.0555
ltibia 85.5844
lfoot -1.10573 -2.81672
ltoes -13.5062
110
root 0.855389 18.0287 22.3326 6.37177 -2.49646 -6.14694
lowerback 13.4139 2.24525 6.37307
upperback -1.09514 4.18449 1.88141
thorax -8.41166 1.77588 -2.41851
lowerneck -18.4358 -5.00114 -2.54314
upperneck 7.07141 -6.61764 4.55869
head 5.3354 -2.96572 1.19364
rclavicle -1.4064e-014 -1.27222e-014
rhumerus -34.5124 10.5498 -97.03
rradius 123.999
rwrist -18.5208
rhand -21.0762 29.2173
rfingers 7.12502
rthumb 5.30082 -0.696434
lclavicle -1.4064e-014 -1.27222e-014
lhumerus -61.9442 -9.96009 95.8901
lradius 105.319
lwrist 31.5226
lhand -24.6419 5.21408
lfingers 7.12502
lthumb 1.85739 35.1857
rfemur 2.41851 2.89006 34.698
rtibia 34.7228
rfoot -3.65482 -4.38052
rtoes -16.9397
lfemur -41.5828 3.84282 -12.436
ltibia 81.3513
lfoot -0.701283 -2.43644
ltoes -13.9918
111
root 0.886184 18.1526 22.9291 6.18807 -2.76395 -5.5293
lowerback 12.6378 2.53447 6.21944
upperback -1.0111 4.44555 1.5232
thorax -7.83553 1.92612 -2.71475
lowerneck -18.4782 -5.0844 -2.51013
upperneck 7.44528 -6.75092 4.54363
head 5.4636 -3.02431 1.16472
rclavicle -1.82882e-014 2.38542e-015
rhumerus -34.7092 10.8167 -96.6929
rradius 124.656
rwrist -19.5591
rhand -18.424 27.0143
rfingers 7.12502
rthumb 7.86107 -2.81951
lclavicle -1.82882e-014 2.38542e-015
lhumerus -63.0443 -9.39661 95.7342
lradius 105.614
lwrist 30.9107
lhand -24.9183 4.94897
lfingers 7.12502
lthumb 1.59044 34.9228
rfemur 4.50208 2.62243 33.264
rtibia 33.3154
rfoot 1.14737 -2.37301
rtoes -13.8115
lfemur -40.8713 3.02393 -13.478
ltibia 76.8013
lfoot -0.948528 -1.43922
ltoes -14.2848
112
root 0.898744 18.2345 23.4819 5.9531 -2.46325 -5.04692
lowerback 12.3728 2.62252 5.98703
upperback -1.08098 4.49273 1.29188
thorax -7.753 1.95659 -2.8252
lowerneck -18.2028 -5.15429 -2.45864
upperneck 7.66717 -6.86849 4.51261
head 5.49157 -3.08325 1.13762
rclavicle 4.5472e-014 -1.11319e-014
rhumerus -35.124 11.482 -96.5711
rradius 125.167
rwrist -19.3688
rhand -18.4053 25.9241
rfingers 7.12502
rthumb 7.87912 -3.90911
lclavicle 4.5472e-014 -1.11319e-014
lhumerus -63.9885 -8.8506 95.4728
lradius 105.729
lwrist 30.8576
lhand -25.9412 6.80219
lfingers 7.12502
lthumb 0.602546 36.7811
rfemur 6.45582 2.33128 32.2889
rtibia 31.954
rfoot 6.09251 -1.62956
rtoes -19.4564
lfemur -40.3074 1.83252 -14.1201
ltibia 72.2399
lfoot -1.15361 -0.893119
ltoes -14.3826
